# xmcd CD database file
#
# Track frame offsets:
#	150
#	26821
#	47183
#	75351
#	99297
#	121783
#	141091
#	157820
#	178817
#	202304
#
# Disc length: 3009 seconds
#
# Revision: 0
# Processed by: cddbd v1.5.2PL0 Copyright (c) Steve Scherf et al.
# Submitted via: CDex 1.51
#
DISCID=7e0bbf0a
DTITLE=Altea W. - Crystal silence
DYEAR=2004
DGENRE=New Age
TTITLE0=OYA
TTITLE1=pacifist
TTITLE2=April heartbeat
TTITLE3=space dance
TTITLE4=awareness
TTITLE5=swan
TTITLE6=Jaco miles away
TTITLE7=sky walk
TTITLE8=mystery man
TTITLE9=last dance
EXTD=YEAR: 2004
EXTT0=
EXTT1=
EXTT2=
EXTT3=
EXTT4=
EXTT5=
EXTT6=
EXTT7=
EXTT8=
EXTT9=
PLAYORDER=
